<svg xmlns="http://www.w3.org/2000/svg" width="230" height="100"><path d="M122.44 85.08c-.14.07-.19.31-.1.66.1.33.65 1.76.65 1.76.39 1.08 1.05 2.33 1.93 2.97.94.68 1.43.44 1.62.36.14-.07.74-.45.53-1.43a6.091 6.091 0 00-.55-1.7c-.18-.38-.43-.62-.58-.55-.09.01-.02.35-.02.57 0 .38-.13.66-.44.8-.28.12-.96.37-1.48-.57-.42-.76-.8-1.76-.96-2.17-.13-.32-.32-.71-.52-.71zm-14.82 2.8l3.15 2.65 3.06-3.78-3.14-2.66-3.07 3.78zm.7-6.62l3.15 2.66 3.07-3.76-3.15-2.68-3.06 3.78zm20.12-9.31l3.7 1.8 2.04-4.45-3.7-1.79zm-19.15-3.12a25.8 25.8 0 006.66 9.37c.28-1.96.59-3.34.88-4.32a21.6 21.6 0 01-6.05-6.43zm7.02-4.77l3.7 1.79 2.04-4.45-3.69-1.78zm-17.86-17.7s-2.3 1.67-3.23 3.89a4.98 4.98 0 00-.21 3.53c.33.7 1.1 1.39 2.1.57.7-.57 1-1.37 1.16-2.05.09-.4.12-.66.12-.86 0-.25-.08-.46-.31-.4-.67.22-.27 1.14-.75 1.58-.36.23-1.3.1-1.49-.84-.18-.95.53-2.17 1.18-2.97.65-.81 1.79-1.87 1.79-1.87s.81-.69.54-1.03a.114.114 0 00-.08-.03c-.24 0-.82.48-.82.48zm22.73-2.46l-2.85 3.2-2.45 2.72c-.54.61-.82 1.22-.75 1.54l.33 1.65c.08-.3.43-.87.8-1.3l2.86-3.19 2.44-2.74c.55-.6.83-1.2.75-1.52l-.33-1.66c-.08.31-.42.87-.8 1.3zm-30.8 23.97a6.02 6.02 0 012.7-3.6c2.33-1.11 3.24 1.74 3.24 1.74a3.08 3.08 0 01-3.2 2.94c-.93 0-1.93-.36-2.74-1.08zm17.36-46.31a2.9 2.9 0 00-2.78 3.02 2.9 2.9 0 002.95 2.86 2.89 2.89 0 002.14-1.06l.06-.08c.33 2.34-.76 4.21-3.31 6.38-2.61 2.25-8.72 5.18-13.07 8.7-6.1 4.93-7.55 10.31-7.92 14.67-.16 1.94.11 4.5.63 6.6a28.57 28.57 0 001.6 4.7l.12.23c-.16 2.88.13 7.92 1.72 11.72 2.13 4.9 5.97 8.92 11.48 7.74 5.55-1.34 6.18-10.57 6.81-17.31.17-1.1.33-1.3.66-1.59.9-.77 3.06-2.85 4.1-3.78a6.33 6.33 0 001.55-1.88c.46-.9.21-2.08.21-2.08l-.62-4.45c-.15.63-.9 1.52-1.97 2.61-1.1 1.14-4.06 3.73-4.33 4.01-.26.28-1.22 1-1.63 4.38-1.07 9.23-2.85 13.58-6.04 15.05-.84.4-1.79.6-2.83.62-5.85-.05-7.4-7.34-7.37-11.33 0-.23.01-.47.03-.7 1.35 1.88 3.36 3.73 5.84 3.35 3.95-.62 2.72-7.42 2.14-9-.56-1.6-2.09-6.33-5.4-6.1-2.35.17-3.44 2.98-3.94 5.36-.45-1.88-.69-4.09-.54-5.81.35-4.12 1.73-9.26 7.6-14.33 4.17-3.6 8.9-6.18 11.54-8.3a10.8 10.8 0 003.3-4.28c-.16 1.38-.5 2.87-1.14 4.6-2.43 6.54-9.8 17.33-9.9 32.59 0 4.68.42 8.74 1.15 12.2.4-.27.78-.64 1.13-1.08a40.44 40.44 0 01-.8-8.15c0-15.22 7.32-26 9.71-32.52a22.12 22.12 0 001.28-8.42c0-3.03-.66-6.2-1.28-7.43-.67-1.19-1.5-1.71-2.74-1.71zm7.2-20.87c-1.47 1.05-2.7 3.44-2.7 7.1.02 2.24.64 4.92 2.33 7.93-2.27 3.17-2.7 6.08-1.73 8.87.73 2.12 1.1 2.67 1.44 3.95.84 3.22-.09 7.1-2.58 13.07-2.02 4.87-4.65 9.96-4.65 16.16.01 1.42.13 2.8.33 4.17.23-.24.73-.72 1.34-1.29-.3-4.86 1.6-9.74 3.93-14.13 3.38-6.41 3.8-12.94 3.15-16.5 2.37 2.59 6.38 6.47 8.72 10.45a9.32 9.32 0 011.38 3.9c.11 3.14-.85 5.4-2.74 7.6-1.6 1.87-1.05 3.52-.98 3.84.37 1.312.78 2.613 1.23 3.9 1.77-3.55 6.67-5.55 8.88-8.49.51 3.63-2.16 7.08-4.14 9.39-.48.52-1 1.05-1.58 1.63-3.76 3.67-6.22 6.18-7.53 8.52-.33.52-.87 1.69-1.15 2.58a31.92 31.92 0 00-1.28 6.38 153.5 153.5 0 00-.77 5.38c-.26 2.4-.96 6.2-3.84 7.28a2.45 2.45 0 01-.47.14c-2.75.62-5.56-1.73-7.6-5.94a6.87 6.87 0 01-1.38.84c2.76 6.67 6.93 9.74 10.58 9.74 2.76 0 4.95-1.42 5.64-5.57.37-2.09.62-4.4.85-6.65.11-1.08.64-7.2 1.6-9.41 1.2-2.49 3.8-4.9 7.68-8.98 2.4-2.53 3.7-4.64 4.39-6.34 2.26-4.23-.54-14.27-1.09-16.08-.01-.06-.02-.08-.06-.08-.05 0-.07.02-.1.1a.119.119 0 01-.03.04c-1 1.66-2.79 3.18-4.44 4.42.93-2.62.68-4.61.3-6.28v-.01l-.07-.3v.01c-1.68-6.66-8.36-12.6-11.37-16.01-3.92-4.43-2.59-7.29-1.14-9.1.27.4.55.84.86 1.27 5.33 7.37 15.36 19.05 20.61 30.19a37.82 37.82 0 012.92 8.2c2.07 11.54-5.82 23.27-17.64 19.97a2.476 2.476 0 01-.23-.06 32.69 32.69 0 00-.93 4.89 16.1 16.1 0 005.62 1.33l.42.01c9.72.1 17.33-7.31 15.93-22.9 0 0-.59-6.48-3.87-13.3-5.26-12-14.99-23.86-20.96-31.52a20.4 20.4 0 01-3.56-6.36c-1.12-3.55-.41-6.3 1.02-7.5.31-.26.7-.56 1.05-.73.21-.12.13-.37-.02-.4l-.14-.01c-.2 0-.61.1-1.43.69zm-10.92 25.92a2.91 2.91 0 00-2.79 3.04 2.9 2.9 0 002.96 2.85 2.9 2.9 0 002.79-3.03 2.9 2.9 0 00-2.87-2.86h-.1z" fill="#fff"/></svg>